<?xml version="1.0" encoding="UTF-8" standalone="no"?> <!-- Created with Vectornator for iOS (http://vectornator.io/) --><!DOCTYPE svg PUBLIC "-//W3C//DTD SVG 1.1//EN" "http://www.w3.org/Graphics/SVG/1.1/DTD/svg11.dtd">
<svg style="fill-rule:evenodd;clip-rule:evenodd;stroke-linecap:round;stroke-linejoin:round;" xmlns:vectornator="http://vectornator.io" xmlns:xlink="http://www.w3.org/1999/xlink" xmlns="http://www.w3.org/2000/svg" xml:space="preserve" version="1.1" viewBox="0 0 512 512">
<metadata>
<vectornator:setting key="DynamicGuides" value="1"/>
<vectornator:setting key="Units" value="Points"/>
<vectornator:setting key="RulersVisible" value="1"/>
<vectornator:setting key="SnapToGuides" value="1"/>
<vectornator:setting key="GridSpacing" value="36"/>
</metadata>
<defs>
<linearGradient y1="337.632" id="LinearGradient" x1="269.384" y2="-116.438" x2="140.633" gradientUnits="userSpaceOnUse" gradientTransform="matrix(1 0 0 1 0 0.986635)">
<stop stop-color="#f15f27" offset="0.0116242"/>
<stop stop-color="#ffa264" offset="0.448991"/>
<stop stop-color="#ffffff" offset="1"/>
</linearGradient>
</defs>
<g id="Layer 1" vectornator:layerName="Layer 1">
<path d="M0+256C0+114.615+114.615+0+256+0C397.385+0+512+114.615+512+256C512+397.385+397.385+512+256+512C114.615+512+0+397.385+0+256Z" fill-rule="evenodd" fill="url(#LinearGradient)" opacity="1"/>
<path stroke="#2a2925" stroke-width="18.88" d="M152.639+373.76C152.639+373.76+201.026+343.907+260.565+343.907C320.103+343.907+367.916+366.33+367.916+366.33" fill="none" stroke-linecap="round" opacity="1" stroke-linejoin="round"/>
<path d="M139.761+220.389C139.761+192.676+160.956+188.654+182.194+188.654C203.432+188.654+221.699+192.676+221.699+220.389C221.699+248.102+203.357+270.568+180.73+270.568C158.104+270.568+139.761+248.102+139.761+220.389Z" fill-rule="evenodd" fill="#2a2925" opacity="1"/>
<path d="M301.863+220.389C301.863+192.676+323.057+188.654+344.295+188.654C365.534+188.654+383.801+192.676+383.801+220.389C383.801+248.102+365.458+270.568+342.832+270.568C320.205+270.568+301.863+248.102+301.863+220.389Z" fill-rule="evenodd" fill="#2a2925" opacity="1"/>
</g>
<g id="Layer 2" vectornator:layerName="Layer 2">
<path d="M442.906+80.51C474.469+122.824+493.25+175.675+493.25+233.041C493.25+371.94+383.308+484.541+247.719+484.541C112.13+484.541+2.21877+371.94+2.21875+233.041C2.21875+228.266+2.36855+223.532+2.625+218.822C0.917211+230.764+0+242.971+0+255.385C-1.01725e-05+396.77+114.615+511.385+256+511.385C397.385+511.385+512+396.77+512+255.385C512+187.752+485.745+126.276+442.906+80.51Z" fill-rule="evenodd" fill="#0b0b0b" opacity="0.145998"/>
</g>
</svg>
