<?xml version="1.0" encoding="UTF-8" standalone="no"?> <!-- Created with Vectornator for iOS (http://vectornator.io/) --><!DOCTYPE svg PUBLIC "-//W3C//DTD SVG 1.1//EN" "http://www.w3.org/Graphics/SVG/1.1/DTD/svg11.dtd">
<svg style="fill-rule:evenodd;clip-rule:evenodd;stroke-linecap:round;stroke-linejoin:round;" xmlns:vectornator="http://vectornator.io" xmlns:xlink="http://www.w3.org/1999/xlink" xmlns="http://www.w3.org/2000/svg" xml:space="preserve" version="1.1" viewBox="0 0 512 512">
<metadata>
<vectornator:setting key="DynamicGuides" value="1"/>
<vectornator:setting key="Units" value="Points"/>
<vectornator:setting key="RulersVisible" value="1"/>
<vectornator:setting key="SnapToGuides" value="1"/>
<vectornator:setting key="GridSpacing" value="36"/>
</metadata>
<defs>
<linearGradient y1="337.632" id="LinearGradient" x1="269.384" y2="-116.438" x2="140.633" gradientUnits="userSpaceOnUse" gradientTransform="matrix(1 0 0 1 0 0.986635)">
<stop stop-color="#f3a62a" offset="0.0185288"/>
<stop stop-color="#ffe65a" offset="0.447147"/>
<stop stop-color="#ffffff" offset="1"/>
</linearGradient>
</defs>
<g id="Layer 1" vectornator:layerName="Layer 1">
<path d="M0+256C0+114.615+114.615+0+256+0C397.385+0+512+114.615+512+256C512+397.385+397.385+512+256+512C114.615+512+0+397.385+0+256Z" fill-rule="evenodd" fill="url(#LinearGradient)" opacity="1"/>
<path d="M139.997+204.421C139.997+176.708+159.728+154.715+180.966+154.715C202.204+154.715+221.935+176.708+221.935+204.421C221.935+232.134+203.592+254.6+180.966+254.6C158.339+254.6+139.997+232.134+139.997+204.421Z" fill-rule="evenodd" fill="#2a2925" opacity="1"/>
<path d="M302.407+204.247C302.407+176.534+320.75+154.962+343.376+154.962C366.003+154.962+384.345+176.534+384.345+204.247C384.345+231.96+366.003+254.426+343.376+254.426C320.75+254.426+302.407+231.96+302.407+204.247Z" fill-rule="evenodd" fill="#2a2925" opacity="1"/>
<path stroke="#2a2925" stroke-width="18.88" d="M155.605+372.595L365.442+372.595" fill="none" stroke-linecap="round" opacity="1" stroke-linejoin="round"/>
</g>
<g id="Layer 2" vectornator:layerName="Layer 2">
<path d="M442.906+80.51C474.469+122.824+493.25+175.675+493.25+233.041C493.25+371.94+383.308+484.541+247.719+484.541C112.13+484.541+2.21877+371.94+2.21875+233.041C2.21875+228.266+2.36855+223.532+2.625+218.822C0.917211+230.764+0+242.971+0+255.385C-1.01725e-05+396.77+114.615+511.385+256+511.385C397.385+511.385+512+396.77+512+255.385C512+187.752+485.745+126.276+442.906+80.51Z" fill-rule="evenodd" fill="#0b0b0b" opacity="0.145998"/>
</g>
</svg>
