<?xml version="1.0" encoding="UTF-8" standalone="no"?> <!-- Created with Vectornator for iOS (http://vectornator.io/) --><!DOCTYPE svg PUBLIC "-//W3C//DTD SVG 1.1//EN" "http://www.w3.org/Graphics/SVG/1.1/DTD/svg11.dtd">
<svg style="fill-rule:evenodd;clip-rule:evenodd;stroke-linecap:round;stroke-linejoin:round;" xmlns:vectornator="http://vectornator.io" xmlns:xlink="http://www.w3.org/1999/xlink" xmlns="http://www.w3.org/2000/svg" xml:space="preserve" version="1.1" viewBox="0 0 512 512">
<metadata>
<vectornator:setting key="DisplayWhiteBackground" value="1"/>
<vectornator:setting key="RulersVisible" value="1"/>
<vectornator:setting key="GridSpacing" value="36"/>
<vectornator:setting key="Units" value="Pixels"/>
<vectornator:setting key="New" value="0"/>
<vectornator:setting key="DynamicGuides" value="0"/>
<vectornator:setting key="SnapToPoints" value="0"/>
<vectornator:setting key="CMYKEnabledKey" value="0"/>
<vectornator:setting key="SnapToGrid" value="0"/>
<vectornator:setting key="SnapToGuides" value="1"/>
<vectornator:setting key="SnapToEdges" value="0"/>
</metadata>
<defs>
<linearGradient y1="337.632" id="LinearGradient" x1="269.384" y2="-116.438" x2="140.633" gradientUnits="userSpaceOnUse" gradientTransform="matrix(1 0 0 1 0.384602 -1.85435)">
<stop stop-color="#d64d34" offset="0.0116242"/>
<stop stop-color="#f98a54" offset="0.442683"/>
<stop stop-color="#ffffff" offset="1"/>
</linearGradient>
</defs>
<g id="Layer 1" vectornator:layerName="Layer 1">
<path d="M0.384602+253.159C0.384602+111.774+115-2.84099+256.385-2.84099C397.77-2.84099+512.385+111.774+512.385+253.159C512.385+394.544+397.77+509.159+256.385+509.159C115+509.159+0.384602+394.544+0.384602+253.159Z" opacity="1" fill="url(#LinearGradient)"/>
<path stroke="#2a2925" stroke-width="18.88" d="M168.398+374.998C168.398+374.998+192.965+329.286+260.565+329.286C328.165+329.286+352.359+376.298+352.359+376.298" fill="none" stroke-linecap="round" opacity="1" stroke-linejoin="round"/>
<path stroke="#2a2925" stroke-width="18.88" d="M293.483+218.313L368.065+239.041" fill="none" stroke-linecap="round" opacity="1" stroke-linejoin="round"/>
<path stroke="#2a2925" stroke-width="18.88" d="M225.957+218.313L151.375+239.041" fill="none" stroke-linecap="round" opacity="1" stroke-linejoin="round"/>
</g>
<g id="Layer 2" vectornator:layerName="Layer 2">
<path d="M442.906+80.51C474.469+122.824+493.25+175.675+493.25+233.041C493.25+371.94+383.308+484.541+247.719+484.541C112.13+484.541+2.21877+371.94+2.21875+233.041C2.21875+228.266+2.36855+223.532+2.625+218.822C0.917211+230.764+0+242.971+0+255.385C-1.01725e-05+396.77+114.615+511.385+256+511.385C397.385+511.385+512+396.77+512+255.385C512+187.752+485.745+126.276+442.906+80.51Z" opacity="0.145998" fill="#0b0b0b"/>
<path d="M39.5824+169.022C31.8655+161.305+57.961+103.383+103.891+65.1582C146.916+29.3513+219.622+8.88696+230.787+20.0523C241.953+31.2177+178.524+39.6313+122.885+84.0656C67.2454+128.5+47.2992+176.738+39.5824+169.022Z" opacity="0.505371" fill="#ffffff"/>
</g>
</svg>
